# xmcd CD database file
#
# Track frame offsets:
#	150
#	17908
#	36431
#	54616
#	69828
#	83329
#	101165
#	118033
#	133746
#	151395
#	168645
#	187838
#	200302
#	213021
#	225021
#	239534
#	254321
#	270966
#	290028
#	303963
#
# Disc length: 4288 seconds
#
# Revision: 0
# Processed by: cddbd v1.5.2PL0 Copyright (c) Steve Scherf et al.
# Submitted via: CDex 1.51
#
DISCID=0a10be14
DTITLE=The Real Book Play-Along - Volume II
DYEAR=2010
DGENRE=Jazz
TTITLE0=The Birth Of The Blues
TTITLE1=Blame It On My Youth
TTITLE2=Bloomdido
TTITLE3=Blow Mr. Dexter
TTITLE4=Blue 'N Boogie
TTITLE5=Blue Seven
TTITLE6=Blue Skies
TTITLE7=Blues By Five
TTITLE8=Blues In The Closet
TTITLE9=Blues March
TTITLE10=Bohemia After Dark
TTITLE11=Bouncing With Bud
TTITLE12=Budo
TTITLE13=Buster Rides Again
TTITLE14=Bye Bye Blackbird
TTITLE15=C-Jam Blues
TTITLE16=Candy
TTITLE17=Cantelope Island
TTITLE18=Caravan
TTITLE19=Cast Your Fate To The Wind
EXTD=YEAR: 2010
EXTT0=
EXTT1=
EXTT2=
EXTT3=
EXTT4=
EXTT5=
EXTT6=
EXTT7=
EXTT8=
EXTT9=
EXTT10=
EXTT11=
EXTT12=
EXTT13=
EXTT14=
EXTT15=
EXTT16=
EXTT17=
EXTT18=
EXTT19=
PLAYORDER=
